<?xml version="1.0" encoding="UTF-8"?>
<svg width="24px" height="30px" viewBox="0 0 24 30" version="1.1" xmlns="http://www.w3.org/2000/svg" xmlns:xlink="http://www.w3.org/1999/xlink">
    <title>Bookmark</title>
    <defs>
        <linearGradient x1="3.41426573%" y1="-46.3095806%" x2="209.223929%" y2="71.6202493%" id="linearGradient-1">
            <stop stop-color="#CF424F" offset="0%"></stop>
            <stop stop-color="#A21F27" offset="100%"></stop>
        </linearGradient>
        <linearGradient x1="18%" y1="5.1609018%" x2="96.0112837%" y2="61.3577594%" id="linearGradient-2">
            <stop stop-color="#CF424F" offset="0%"></stop>
            <stop stop-color="#A21F27" offset="100%"></stop>
        </linearGradient>
    </defs>
    <g id="微信端家长选课（视觉）" stroke="none" stroke-width="1" fill="none" fill-rule="evenodd">
        <g id="Bookmark" fill-rule="nonzero">
            <path d="M11.9867696,24.9322893 L2.2491731,29.7961512 C1.51381228,30.1953288 0.59652409,29.9288221 0.18522602,29.196497 C0.0651061305,28.9662562 0.00158628558,28.7103482 0,28.4502607 L0,17.5632054 C0,18.642583 0.608599779,19.3088654 2.20948181,20.0551018 L11.9867696,24.9322893 Z" id="Bookmark-2" fill="url(#linearGradient-1)" opacity="0.348875"></path>
            <path d="M16.6041896,0 C20.6659316,0 23.9603087,1.59907788 24,5.69005213 L24,5.69005213 L24,28.4502607 C23.998377,28.7061036 23.9347961,28.9576833 23.814774,29.1831714 C23.6219222,29.5509804 23.2889108,29.8240314 22.8922036,29.939628 C22.4954965,30.0552246 22.0691776,30.0034352 21.7111356,29.7961512 L21.7111356,29.7961512 L11.9867696,24.9322893 L2.20948181,20.0551018 C0.608599779,19.3088654 0,18.642583 0,17.5632054 L0,17.5632054 L0,5.69005213 C0,1.59907788 3.29437707,0 7.34288864,0 L7.34288864,0 Z M17.6229327,9.06144134 L6.33737596,9.06144134 C5.6870561,9.06144134 5.1598677,9.59242391 5.1598677,10.2474241 C5.1598677,10.9024243 5.6870561,11.4334069 6.33737596,11.4334069 L6.33737596,11.4334069 L17.6229327,11.4334069 C18.2732526,11.4334069 18.800441,10.9024243 18.800441,10.2474241 C18.800441,9.59242391 18.2732526,9.06144134 17.6229327,9.06144134 L17.6229327,9.06144134 Z" fill="url(#linearGradient-2)"></path>
        </g>
    </g>
</svg>