<?xml version="1.0" encoding="UTF-8"?>
<svg width="27px" height="30px" viewBox="0 0 27 30" version="1.1" xmlns="http://www.w3.org/2000/svg" xmlns:xlink="http://www.w3.org/1999/xlink">
    <title>Calendar</title>
    <defs>
        <linearGradient x1="11.0998024%" y1="15.8686661%" x2="92.8152331%" y2="75.0592668%" id="linearGradient-1">
            <stop stop-color="#CF424F" offset="0%"></stop>
            <stop stop-color="#A21F27" offset="100%"></stop>
        </linearGradient>
        <linearGradient x1="6.00908212e-13%" y1="40.1063133%" x2="111.191724%" y2="61.4149657%" id="linearGradient-2">
            <stop stop-color="#CF424F" offset="0%"></stop>
            <stop stop-color="#A21F27" offset="100%"></stop>
        </linearGradient>
        <linearGradient x1="44.5066871%" y1="-1.10467191e-12%" x2="109.571653%" y2="100%" id="linearGradient-3">
            <stop stop-color="#CF424F" offset="0%"></stop>
            <stop stop-color="#A21F27" offset="100%"></stop>
        </linearGradient>
    </defs>
    <g id="微信端家长选课（视觉）" stroke="none" stroke-width="1" fill="none" fill-rule="evenodd">
        <g id="Calendar" fill-rule="nonzero">
            <path d="M19.5757409,24.135 C18.8940724,24.12 18.3457739,23.55 18.3457739,22.86 C18.330955,22.17 18.8792536,21.6015 19.5609221,21.5865 L19.5757409,21.5865 C20.2722283,21.5865 20.8353458,22.1565 20.8353458,22.86 C20.8353458,23.565 20.2722283,24.135 19.5757409,24.135 L19.5757409,24.135 Z M13.5296378,18.615 C12.8479693,18.6465 12.2848518,18.105 12.2552141,17.4165 C12.2552141,16.7265 12.7886937,16.1565 13.4703622,16.125 C14.1372119,16.125 14.6855104,16.6515 14.7003293,17.325 C14.7299671,18.0165 14.1964874,18.5865 13.5296378,18.615 L13.5296378,18.615 Z M13.5296378,24.06 C12.8479693,24.0915 12.2848518,23.55 12.2552141,22.86 C12.2552141,22.17 12.7886937,21.6015 13.4703622,21.57 C14.1372119,21.57 14.6855104,22.0965 14.7003293,22.7715 C14.7299671,23.4615 14.1964874,24.0315 13.5296378,24.06 L13.5296378,24.06 Z M7.43907794,18.615 C6.75740944,18.6465 6.19429199,18.105 6.16465423,17.4165 C6.16465423,16.7265 6.69813392,16.1565 7.37980241,16.125 C8.04665203,16.125 8.5949506,16.6515 8.60976948,17.325 C8.63940724,18.0165 8.10592755,18.5865 7.43907794,18.615 L7.43907794,18.615 Z M7.42425906,24.06 C6.74259056,24.0915 6.17947311,23.55 6.14983535,22.86 C6.14983535,22.17 6.68331504,21.6015 7.36498353,21.57 C8.03183315,21.57 8.58013172,22.0965 8.5949506,22.7715 C8.62458836,23.4615 8.09110867,24.0315 7.42425906,24.06 L7.42425906,24.06 Z M18.3605928,17.4015 C18.3605928,16.7115 18.8940724,16.1565 19.5757409,16.1415 C20.2425906,16.1415 20.7760703,16.68 20.805708,17.3415 C20.8205269,18.0315 20.2870472,18.6015 19.6201976,18.615 C18.9385291,18.63 18.3754116,18.105 18.3605928,17.4165 L18.3605928,17.4015 Z M0,10.8855 L0,22.305 C0,27.045 2.99341383,30 7.6909989,30 L19.2941822,30 C24.0362239,30 27,27.105 27,22.3965 L27,10.8855 L0,10.8855 Z" id="Fill-1" fill="url(#linearGradient-1)"></path>
            <path d="M0.00503841932,10.88535 C0.0243029638,10.00485 0.0983973655,8.25735 0.237694841,7.69485 C0.949001098,4.53135 3.36447859,2.52135 6.81727772,2.23485 L20.1839078,2.23485 C23.6070692,2.53635 26.0521844,4.55985 26.7634907,7.69485 C26.9013063,8.24235 26.9754007,10.00335 26.9946652,10.88535 L0.00503841932,10.88535 Z" id="Fill-4" fill="url(#linearGradient-2)" opacity="0.348875"></path>
            <path d="M7.95729418,6.885 C8.60932492,6.885 9.09834797,6.3915 9.09834797,5.73 L9.09834797,1.1565 C9.09834797,0.495 8.60932492,0 7.95729418,0 C7.30526345,0 6.8162404,0.495 6.8162404,1.1565 L6.8162404,5.73 C6.8162404,6.3915 7.30526345,6.885 7.95729418,6.885" id="Fill-6" fill="url(#linearGradient-3)"></path>
            <path d="M19.0424094,6.885 C19.6796213,6.885 20.1834632,6.3915 20.1834632,5.73 L20.1834632,1.1565 C20.1834632,0.495 19.6796213,0 19.0424094,0 C18.3903787,0 17.9013557,0.495 17.9013557,1.1565 L17.9013557,5.73 C17.9013557,6.3915 18.3903787,6.885 19.0424094,6.885" id="Fill-9" fill="url(#linearGradient-3)"></path>
        </g>
    </g>
</svg>