<?xml version="1.0" encoding="UTF-8"?>
<svg width="30px" height="30px" viewBox="0 0 30 30" version="1.1" xmlns="http://www.w3.org/2000/svg" xmlns:xlink="http://www.w3.org/1999/xlink">
    <title>Edit Square</title>
    <defs>
        <linearGradient x1="11.2796833%" y1="6.70223997%" x2="100%" y2="86.7502706%" id="linearGradient-1">
            <stop stop-color="#CF424F" offset="0%"></stop>
            <stop stop-color="#A21F27" offset="100%"></stop>
        </linearGradient>
        <linearGradient x1="29.9545904%" y1="25.4966329%" x2="100%" y2="100%" id="linearGradient-2">
            <stop stop-color="#CF424F" offset="0%"></stop>
            <stop stop-color="#A21F27" offset="100%"></stop>
        </linearGradient>
    </defs>
    <g id="微信端家长选课（视觉）" stroke="none" stroke-width="1" fill="none" fill-rule="evenodd">
        <g id="Edit-Square" fill-rule="nonzero">
            <path d="M21.9965057,29.9845459 L8.00231348,29.9845459 C5.83253189,30.1194067 3.70171045,29.3671831 2.09834974,27.9016958 C0.632848084,26.2968523 -0.11938283,24.1660516 0.0154792864,21.9977896 L0.0154792864,8.00223543 C-0.11938283,5.83397345 0.631349616,3.7031728 2.09685127,2.09832928 C3.70171045,0.632841911 5.83253189,-0.119381665 8.00231348,0.0154791354 L21.9965057,0.0154791354 C24.1632904,-0.119381665 26.2926133,0.631343458 27.895974,2.09683082 C29.3599772,3.7031728 30.1137066,5.832475 29.9848384,8.00223543 L29.9848384,21.9977896 C30.118202,24.1660516 29.3674696,26.2968523 27.9019679,27.9016958 C26.2971087,29.3671831 24.1662873,30.1194067 21.9965057,29.9845459" id="Fill-1" fill="url(#linearGradient-1)" opacity="0.348875"></path>
            <path d="M22.5818212,12.5963415 L12.7526555,22.4743902 C12.2414804,22.9719512 11.5696504,23.25 10.8686103,23.25 L7.43643505,23.25 C7.24657004,23.25 7.07131002,23.1768293 6.93986501,23.045122 C6.80842,22.9134146 6.75,22.7378049 6.75,22.547561 L6.83763001,19.0792683 C6.85223501,18.3914634 7.12973003,17.747561 7.61169507,17.2646341 L14.5782806,10.2841463 C14.6951206,10.1670732 14.8995906,10.1670732 15.0164306,10.2841463 L17.4598473,12.7178049 C17.6205023,12.8773171 17.8541823,12.9812195 18.1024674,12.9812195 C18.6428524,12.9812195 19.0663974,12.5421951 19.0663974,12.0153659 C19.0663974,11.7519512 18.9641624,11.5178049 18.8035074,11.3421951 C18.7596924,11.2836585 16.4331157,8.96707317 16.4331157,8.96707317 C16.2870657,8.82073171 16.2870657,8.57195122 16.4331157,8.42560976 L17.4116508,7.4304878 C18.3171609,6.52317073 19.777661,6.52317073 20.6831711,7.4304878 L22.5818212,9.33292683 C23.4727263,10.2256098 23.4727263,11.6890244 22.5818212,12.5963415" id="Fill-4" fill="url(#linearGradient-2)"></path>
        </g>
    </g>
</svg>