<?xml version="1.0" encoding="UTF-8"?>
<svg width="30px" height="30px" viewBox="0 0 30 30" version="1.1" xmlns="http://www.w3.org/2000/svg" xmlns:xlink="http://www.w3.org/1999/xlink">
    <title>Password</title>
    <defs>
        <linearGradient x1="2.51881849e-13%" y1="-1.33920652e-13%" x2="118.537002%" y2="109.017893%" id="linearGradient-1">
            <stop stop-color="#CF424F" offset="0%"></stop>
            <stop stop-color="#A21F27" offset="100%"></stop>
        </linearGradient>
        <linearGradient x1="18.3308466%" y1="39.8300673%" x2="79.7393815%" y2="64.7321972%" id="linearGradient-2">
            <stop stop-color="#CF424F" offset="0%"></stop>
            <stop stop-color="#A21F27" offset="100%"></stop>
        </linearGradient>
    </defs>
    <g id="微信端家长选课（视觉）" stroke="none" stroke-width="1" fill="none" fill-rule="evenodd">
        <g id="Password" fill-rule="nonzero">
            <path d="M8.4975,0 C3.414,0 0,3.567 0,8.8755 L0,21.126 C0,26.433 3.414,30 8.4975,30 L21.4995,30 C26.583,30 30,26.433 30,21.126 L30,8.8755 C30,3.567 26.5845,0 21.501,0 L8.4975,0 Z" id="Fill-1" fill="url(#linearGradient-1)" opacity="0.348875"></path>
            <path d="M10.2657,11.09805 C12.0207,11.09805 13.4907,12.26805 13.9707,13.87305 L13.9707,13.87305 L22.5207,13.87305 C23.1357,13.87305 23.6457,14.38305 23.6457,14.99805 L23.6457,14.99805 L23.6457,17.77305 C23.6457,18.40305 23.1357,18.89805 22.5207,18.89805 C21.8907,18.89805 21.3957,18.40305 21.3957,17.77305 L21.3957,17.77305 L21.3957,16.12305 L19.4007,16.12305 L19.4007,17.77305 C19.4007,18.40305 18.8907,18.89805 18.2757,18.89805 C17.6457,18.89805 17.1507,18.40305 17.1507,17.77305 L17.1507,17.77305 L17.1507,16.12305 L13.9707,16.12305 C13.4907,17.72805 12.0207,18.89805 10.2657,18.89805 C8.1057,18.89805 6.3507,17.15805 6.3507,14.99805 C6.3507,12.85305 8.1057,11.09805 10.2657,11.09805 Z M10.2657,13.34805 C9.3507,13.34805 8.6007,14.08305 8.6007,14.99805 C8.6007,15.91305 9.3507,16.64805 10.2657,16.64805 C11.1657,16.64805 11.9157,15.91305 11.9157,14.99805 C11.9157,14.08305 11.1657,13.34805 10.2657,13.34805 Z" id="Combined-Shape" fill="url(#linearGradient-2)"></path>
        </g>
    </g>
</svg>