<?xml version="1.0" encoding="UTF-8"?>
<svg width="28px" height="26px" viewBox="0 0 28 26" version="1.1" xmlns="http://www.w3.org/2000/svg" xmlns:xlink="http://www.w3.org/1999/xlink">
    <title>Wallet</title>
    <defs>
        <linearGradient x1="11.0998024%" y1="-5.16198992%" x2="92.8152331%" y2="90.5%" id="linearGradient-1">
            <stop stop-color="#CF424F" offset="0%"></stop>
            <stop stop-color="#A21F27" offset="100%"></stop>
        </linearGradient>
        <linearGradient x1="11.2796833%" y1="30.7565511%" x2="100%" y2="66.3334536%" id="linearGradient-2">
            <stop stop-color="#CF424F" offset="0%"></stop>
            <stop stop-color="#A21F27" offset="100%"></stop>
        </linearGradient>
        <linearGradient x1="11.0998024%" y1="-18.1012221%" x2="92.8152331%" y2="100%" id="linearGradient-3">
            <stop stop-color="#CF424F" offset="0%"></stop>
            <stop stop-color="#A21F27" offset="100%"></stop>
        </linearGradient>
    </defs>
    <g id="微信端家长选课（视觉）" stroke="none" stroke-width="1" fill="none" fill-rule="evenodd">
        <g id="校内入口备份-3" transform="translate(-243.000000, -179.000000)" fill-rule="nonzero">
            <g id="编组-5" transform="translate(233.000000, 179.000000)">
                <g id="Wallet" transform="translate(10.000000, 0.000000)">
                    <path d="M20.3192889,0 C25.144,0 27.9950222,2.77007078 27.9950222,7.47300303 L27.9950222,7.47300303 L27.9950222,7.52517695 L22.0664889,7.52517695 C19.3075556,7.53003033 17.0725333,9.70920121 17.0675556,12.3991911 C17.0638222,15.0952477 19.3013333,17.2841254 22.0664889,17.2877654 L22.0664889,17.2877654 L28,17.2877654 L28,17.7160768 C28,22.4190091 25.1489778,25.2 20.3242667,25.2 L20.3242667,25.2 L7.67697778,25.2 C2.85102222,25.2 0,22.4190091 0,17.7160768 L0,17.7160768 L0,7.47300303 C0,2.77007078 2.85102222,0 7.67697778,0 L7.67697778,0 Z M14.5363556,5.42486417 L6.63537778,5.42486417 C6.048,5.4273003 5.57137778,5.89201213 5.56887921,6.46592518 C5.5664,7.04226491 6.04426667,7.51183013 6.63537778,7.51425683 L6.63537778,7.51425683 L14.5463111,7.51425683 C15.1374222,7.51183013 15.6152889,7.04226491 15.6128097,6.46471183 C15.6103111,5.88837209 15.1274667,5.42244692 14.5363556,5.42486417 L14.5363556,5.42486417 Z" id="Fill-1" fill="url(#linearGradient-1)"></path>
                    <path d="M19.6523696,13.0153353 C19.9451436,14.3469916 21.1126693,15.2839026 22.4456243,15.2595356 L26.9955232,15.2595356 C27.5501277,15.2595356 28,14.8002177 28,14.2324667 L28,10.6882872 C27.9988099,10.1217546 27.5501277,9.66121835 26.9955232,9.66 L22.3385118,9.66 C20.8222756,9.6648734 19.5976232,10.9234287 19.6,12.474388 C19.6,12.6559221 19.6178555,12.8374562 19.6523696,13.0153353" id="Fill-4" fill="url(#linearGradient-2)" opacity="0.348875"></path>
                    <circle id="Oval" fill="url(#linearGradient-3)" cx="22.4" cy="12.46" r="1.4"></circle>
                </g>
            </g>
        </g>
    </g>
</svg>